<svg width="134" height="75" viewBox="0 0 134 75" fill="none" xmlns="http://www.w3.org/2000/svg">
    <path d="M51 6V0H55V6H61V10H55V16H51V10H45V6H51ZM57 18V12H63V6H77L80.6 10H87C89.2 10 91 11.8 91 14V38C91 40.2 89.2 42 87 42H55C52.8 42 51 40.2 51 38V18H57ZM71 36C79.9 36 84.38 25.24 78.08 18.92C71.78 12.62 61 17.1 61 26C61 31.52 65.48 36 71 36ZM64.6 26C64.6 31.7 71.5 34.56 75.52 30.52C79.56 26.5 76.7 19.6 71 19.6C69.3042 19.6053 67.6794 20.2813 66.4803 21.4803C65.2813 22.6794 64.6053 24.3042 64.6 26Z" fill="#D8E0E4"/>
    <path d="M0.356889 74.6314V70.1623H1.0973C1.34943 69.9812 1.58026 69.7255 1.78977 69.3952C1.99929 69.0614 2.17862 68.6016 2.32777 68.0156C2.47692 67.4261 2.58345 66.6555 2.64737 65.7038L2.95632 61.0909H10.174V70.1623H11.3672V74.6207H9.15128V72H2.5728V74.6314H0.356889ZM3.76065 70.1623H7.9581V62.9925H5.03374L4.86328 65.7038C4.81712 66.4247 4.74077 67.0639 4.63423 67.6214C4.53125 68.179 4.40518 68.6673 4.25604 69.0863C4.11044 69.5018 3.94531 69.8604 3.76065 70.1623ZM22.7943 66.5455C22.7943 67.7351 22.5688 68.7472 22.1178 69.5817C21.6704 70.4162 21.0596 71.0536 20.2854 71.494C19.5148 71.9308 18.6483 72.1491 17.686 72.1491C16.7165 72.1491 15.8465 71.929 15.0759 71.4886C14.3053 71.0483 13.6963 70.4109 13.2488 69.5763C12.8014 68.7418 12.5777 67.7315 12.5777 66.5455C12.5777 65.3558 12.8014 64.3438 13.2488 63.5092C13.6963 62.6747 14.3053 62.0391 15.0759 61.6023C15.8465 61.1619 16.7165 60.9418 17.686 60.9418C18.6483 60.9418 19.5148 61.1619 20.2854 61.6023C21.0596 62.0391 21.6704 62.6747 22.1178 63.5092C22.5688 64.3438 22.7943 65.3558 22.7943 66.5455ZM20.4559 66.5455C20.4559 65.7749 20.3405 65.125 20.1096 64.5959C19.8824 64.0668 19.561 63.6655 19.1455 63.392C18.73 63.1186 18.2435 62.9819 17.686 62.9819C17.1285 62.9819 16.642 63.1186 16.2265 63.392C15.811 63.6655 15.4878 64.0668 15.257 64.5959C15.0297 65.125 14.9161 65.7749 14.9161 66.5455C14.9161 67.3161 15.0297 67.9659 15.257 68.495C15.4878 69.0241 15.811 69.4254 16.2265 69.6989C16.642 69.9723 17.1285 70.109 17.686 70.109C18.2435 70.109 18.73 69.9723 19.1455 69.6989C19.561 69.4254 19.8824 69.0241 20.1096 68.495C20.3405 67.9659 20.4559 67.3161 20.4559 66.5455ZM24.5028 72V61.0909H31.7418V62.9925H26.8093V65.1232H28.5831C29.446 65.1232 30.19 65.2635 30.815 65.544C31.4435 65.821 31.9283 66.2134 32.2692 66.7212C32.6101 67.229 32.7805 67.8274 32.7805 68.5163C32.7805 69.2017 32.6101 69.8072 32.2692 70.3327C31.9283 70.8548 31.4435 71.2631 30.815 71.5579C30.19 71.8526 29.446 72 28.5831 72H24.5028ZM26.8093 70.1463H28.5831C28.995 70.1463 29.343 70.0717 29.6271 69.9226C29.9112 69.7699 30.1261 69.5692 30.2717 69.3207C30.4208 69.0685 30.4954 68.7933 30.4954 68.495C30.4954 68.0618 30.3303 67.696 30 67.3977C29.6733 67.0959 29.201 66.945 28.5831 66.945H26.8093V70.1463ZM36.1537 72H33.6821L37.4481 61.0909H40.4204L44.181 72H41.7094L38.9768 63.5838H38.8916L36.1537 72ZM35.9992 67.712H41.8373V69.5124H35.9992V67.712ZM45.4941 72V61.0909H49.8619C50.6645 61.0909 51.3339 61.2099 51.8701 61.4478C52.4063 61.6857 52.8094 62.016 53.0793 62.4386C53.3492 62.8576 53.4841 63.3406 53.4841 63.8874C53.4841 64.3136 53.3989 64.6882 53.2284 65.0114C53.058 65.331 52.8236 65.5937 52.5253 65.7997C52.2306 66.0021 51.8932 66.146 51.5132 66.2312V66.3377C51.9287 66.3555 52.3176 66.4727 52.6798 66.6893C53.0455 66.9059 53.3421 67.2095 53.5693 67.6001C53.7966 67.9872 53.9102 68.4489 53.9102 68.9851C53.9102 69.5639 53.7664 70.0806 53.4788 70.5352C53.1947 70.9862 52.7739 71.343 52.2164 71.6058C51.6588 71.8686 50.9717 72 50.1549 72H45.4941ZM47.8005 70.1143H49.6808C50.3236 70.1143 50.7923 69.9918 51.0871 69.7468C51.3818 69.4982 51.5292 69.168 51.5292 68.756C51.5292 68.4542 51.4564 68.1879 51.3108 67.957C51.1652 67.7262 50.9575 67.5451 50.6876 67.4137C50.4213 67.2823 50.1034 67.2166 49.7341 67.2166H47.8005V70.1143ZM47.8005 65.6559H49.5104C49.8264 65.6559 50.107 65.6009 50.352 65.4908C50.6006 65.3771 50.7959 65.2173 50.9379 65.0114C51.0835 64.8054 51.1563 64.5586 51.1563 64.271C51.1563 63.8768 51.0161 63.5589 50.7355 63.3175C50.4585 63.076 50.0644 62.9553 49.553 62.9553H47.8005V65.6559ZM55.411 61.0909H57.7122V67.9517H57.8027L62.5169 61.0909H64.5357V72H62.2292V65.1339H62.1493L57.4086 72H55.411V61.0909ZM66.0258 62.9925V61.0909H74.9854V62.9925H71.6455V72H69.3657V62.9925H66.0258ZM77.979 65.1232H80.5784C81.4449 65.1232 82.1906 65.2635 82.8156 65.544C83.4442 65.821 83.9289 66.2134 84.2698 66.7212C84.6107 67.229 84.7794 67.8274 84.7758 68.5163C84.7794 69.2017 84.6107 69.8072 84.2698 70.3327C83.9289 70.8548 83.4442 71.2631 82.8156 71.5579C82.1906 71.8526 81.4449 72 80.5784 72H76.5035V61.0909H78.8046V70.1463H80.5784C80.9939 70.1463 81.3437 70.0717 81.6278 69.9226C81.9118 69.7699 82.1267 69.5692 82.2723 69.3207C82.4214 69.0685 82.4942 68.7933 82.4907 68.495C82.4942 68.0618 82.3309 67.696 82.0006 67.3977C81.6739 67.0959 81.1998 66.945 80.5784 66.945H77.979V65.1232ZM94.3985 62.2628H96.8382C97.7117 62.2628 98.4859 62.4474 99.1606 62.8168C99.8389 63.1861 100.37 63.7063 100.753 64.3775C101.14 65.0451 101.334 65.8299 101.334 66.7319C101.334 67.6055 101.14 68.3672 100.753 69.017C100.37 69.6669 99.8389 70.1729 99.1606 70.5352C98.4859 70.8938 97.7117 71.0732 96.8382 71.0732H94.3985C93.5214 71.0732 92.7437 70.8956 92.0654 70.5405C91.3872 70.1818 90.8545 69.6776 90.4674 69.0277C90.0839 68.3778 89.8921 67.6108 89.8921 66.7266C89.8921 65.8246 90.0857 65.0398 90.4727 64.3722C90.8634 63.701 91.3978 63.1825 92.0761 62.8168C92.7544 62.4474 93.5285 62.2628 94.3985 62.2628ZM94.3985 64.1911C93.9298 64.1911 93.5161 64.2852 93.1574 64.4734C92.8023 64.658 92.5253 64.9386 92.3264 65.315C92.1276 65.6914 92.0281 66.1619 92.0281 66.7266C92.0281 67.2663 92.1294 67.7156 92.3318 68.0742C92.5377 68.4329 92.8183 68.701 93.1734 68.8786C93.5285 69.0561 93.9369 69.1449 94.3985 69.1449H96.8541C97.3193 69.1449 97.7259 69.0543 98.074 68.8732C98.4255 68.6921 98.6972 68.4222 98.8889 68.0636C99.0843 67.7049 99.1819 67.261 99.1819 66.7319C99.1819 66.1673 99.0843 65.6967 98.8889 65.3203C98.6972 64.9439 98.4255 64.6616 98.074 64.4734C97.7259 64.2852 97.3193 64.1911 96.8541 64.1911H94.3985ZM96.7103 60.8991V72.4474H94.521V60.8991H96.7103ZM113.058 66.5455C113.058 67.7351 112.832 68.7472 112.381 69.5817C111.934 70.4162 111.323 71.0536 110.549 71.494C109.778 71.9308 108.912 72.1491 107.95 72.1491C106.98 72.1491 106.11 71.929 105.34 71.4886C104.569 71.0483 103.96 70.4109 103.513 69.5763C103.065 68.7418 102.841 67.7315 102.841 66.5455C102.841 65.3558 103.065 64.3438 103.513 63.5092C103.96 62.6747 104.569 62.0391 105.34 61.6023C106.11 61.1619 106.98 60.9418 107.95 60.9418C108.912 60.9418 109.778 61.1619 110.549 61.6023C111.323 62.0391 111.934 62.6747 112.381 63.5092C112.832 64.3438 113.058 65.3558 113.058 66.5455ZM110.72 66.5455C110.72 65.7749 110.604 65.125 110.373 64.5959C110.146 64.0668 109.825 63.6655 109.409 63.392C108.994 63.1186 108.507 62.9819 107.95 62.9819C107.392 62.9819 106.906 63.1186 106.49 63.392C106.075 63.6655 105.752 64.0668 105.521 64.5959C105.293 65.125 105.18 65.7749 105.18 66.5455C105.18 67.3161 105.293 67.9659 105.521 68.495C105.752 69.0241 106.075 69.4254 106.49 69.6989C106.906 69.9723 107.392 70.109 107.95 70.109C108.507 70.109 108.994 69.9723 109.409 69.6989C109.825 69.4254 110.146 69.0241 110.373 68.495C110.604 67.9659 110.72 67.3161 110.72 66.5455ZM113.853 62.9925V61.0909H122.812V62.9925H119.473V72H117.193V62.9925H113.853ZM133.815 66.5455C133.815 67.7351 133.589 68.7472 133.138 69.5817C132.691 70.4162 132.08 71.0536 131.306 71.494C130.535 71.9308 129.669 72.1491 128.706 72.1491C127.737 72.1491 126.867 71.929 126.096 71.4886C125.326 71.0483 124.717 70.4109 124.269 69.5763C123.822 68.7418 123.598 67.7315 123.598 66.5455C123.598 65.3558 123.822 64.3438 124.269 63.5092C124.717 62.6747 125.326 62.0391 126.096 61.6023C126.867 61.1619 127.737 60.9418 128.706 60.9418C129.669 60.9418 130.535 61.1619 131.306 61.6023C132.08 62.0391 132.691 62.6747 133.138 63.5092C133.589 64.3438 133.815 65.3558 133.815 66.5455ZM131.476 66.5455C131.476 65.7749 131.361 65.125 131.13 64.5959C130.903 64.0668 130.581 63.6655 130.166 63.392C129.751 63.1186 129.264 62.9819 128.706 62.9819C128.149 62.9819 127.662 63.1186 127.247 63.392C126.831 63.6655 126.508 64.0668 126.278 64.5959C126.05 65.125 125.937 65.7749 125.937 66.5455C125.937 67.3161 126.05 67.9659 126.278 68.495C126.508 69.0241 126.831 69.4254 127.247 69.6989C127.662 69.9723 128.149 70.109 128.706 70.109C129.264 70.109 129.751 69.9723 130.166 69.6989C130.581 69.4254 130.903 69.0241 131.13 68.495C131.361 67.9659 131.476 67.3161 131.476 66.5455Z" fill="#D8E0E4"/>
</svg>
