<svg width="9" height="13" viewBox="0 0 9 13" fill="none" xmlns="http://www.w3.org/2000/svg">
    <path d="M1.99981 12.6252C1.76615 12.6256 1.53972 12.5544 1.35981 12.4239C1.25855 12.3505 1.17485 12.2603 1.11349 12.1585C1.05214 12.0567 1.01435 11.9453 1.00227 11.8307C0.990194 11.7161 1.00408 11.6005 1.04312 11.4906C1.08217 11.3807 1.1456 11.2786 1.22981 11.1902L5.70981 6.50019L1.38981 1.80144C1.30674 1.71194 1.24471 1.60896 1.20728 1.49841C1.16985 1.38786 1.15775 1.27193 1.17169 1.15728C1.18563 1.04263 1.22533 0.931524 1.2885 0.830342C1.35168 0.72916 1.43708 0.639899 1.53981 0.567692C1.64327 0.488035 1.76444 0.427951 1.8957 0.391211C2.02696 0.35447 2.16549 0.341867 2.30258 0.354191C2.43967 0.366516 2.57238 0.403502 2.69236 0.462828C2.81234 0.522155 2.91701 0.602541 2.99981 0.698942L7.82981 5.94894C7.97689 6.10551 8.0573 6.3019 8.0573 6.50457C8.0573 6.70724 7.97689 6.90363 7.82981 7.06019L2.82981 12.3102C2.72949 12.4161 2.60206 12.4998 2.45785 12.5545C2.31364 12.6092 2.15671 12.6335 1.99981 12.6252Z" fill="black"/>
</svg>
