<svg width="27" height="21" viewBox="0 0 27 21" fill="none" xmlns="http://www.w3.org/2000/svg">
    <path d="M10.125 10.5C11.4677 10.5 12.7553 9.96663 13.7047 9.01723C14.6541 8.06782 15.1875 6.78016 15.1875 5.4375C15.1875 4.09484 14.6541 2.80717 13.7047 1.85777C12.7553 0.908369 11.4677 0.375 10.125 0.375C8.78234 0.375 7.49468 0.908369 6.54527 1.85777C5.59587 2.80717 5.0625 4.09484 5.0625 5.4375C5.0625 6.78016 5.59587 8.06782 6.54527 9.01723C7.49468 9.96663 8.78234 10.5 10.125 10.5ZM13.5 5.4375C13.5 6.33261 13.1444 7.19105 12.5115 7.82399C11.8786 8.45692 11.0201 8.8125 10.125 8.8125C9.22989 8.8125 8.37145 8.45692 7.73851 7.82399C7.10558 7.19105 6.75 6.33261 6.75 5.4375C6.75 4.54239 7.10558 3.68395 7.73851 3.05101C8.37145 2.41808 9.22989 2.0625 10.125 2.0625C11.0201 2.0625 11.8786 2.41808 12.5115 3.05101C13.1444 3.68395 13.5 4.54239 13.5 5.4375ZM20.25 18.9375C20.25 20.625 18.5625 20.625 18.5625 20.625H1.6875C1.6875 20.625 0 20.625 0 18.9375C0 17.25 1.6875 12.1875 10.125 12.1875C18.5625 12.1875 20.25 17.25 20.25 18.9375ZM18.5625 18.9307C18.5608 18.5156 18.3026 17.2669 17.1585 16.1227C16.0583 15.0225 13.9877 13.875 10.125 13.875C6.26062 13.875 4.19175 15.0225 3.0915 16.1227C1.94738 17.2669 1.69088 18.5156 1.6875 18.9307H18.5625Z" fill="#42687C"/>
    <path fill-rule="evenodd" clip-rule="evenodd" d="M26.7537 5.68392C26.8323 5.7623 26.8946 5.8554 26.9372 5.95791C26.9797 6.06042 27.0016 6.17031 27.0016 6.28129C27.0016 6.39228 26.9797 6.50217 26.9372 6.60467C26.8946 6.70718 26.8323 6.80029 26.7537 6.87867L21.6912 11.9412C21.6128 12.0197 21.5197 12.0821 21.4172 12.1246C21.3147 12.1672 21.2048 12.1891 21.0938 12.1891C20.9829 12.1891 20.873 12.1672 20.7705 12.1246C20.668 12.0821 20.5748 12.0197 20.4965 11.9412L17.9652 9.40992C17.8068 9.25148 17.7178 9.0366 17.7178 8.81254C17.7178 8.58848 17.8068 8.3736 17.9652 8.21517C18.1236 8.05673 18.3385 7.96773 18.5626 7.96773C18.7866 7.96773 19.0015 8.05673 19.16 8.21517L21.0938 10.1507L25.559 5.68392C25.6373 5.60534 25.7305 5.543 25.833 5.50047C25.9355 5.45793 26.0454 5.43604 26.1563 5.43604C26.2673 5.43604 26.3772 5.45793 26.4797 5.50047C26.5822 5.543 26.6753 5.60534 26.7537 5.68392Z" fill="#42687C"/>
</svg>
