<svg width="26" height="26" viewBox="0 0 26 26" fill="none" xmlns="http://www.w3.org/2000/svg">
    <path d="M11.2499 4.2499C11.2499 3.22882 10.8443 2.24956 10.1223 1.52754C9.40025 0.805526 8.42099 0.399902 7.3999 0.399902C6.37882 0.399902 5.39956 0.805526 4.67754 1.52754C3.95553 2.24956 3.5499 3.22882 3.5499 4.2499C3.5499 5.27099 3.95553 6.25025 4.67754 6.97226C5.39956 7.69428 6.37882 8.0999 7.3999 8.0999C8.42099 8.0999 9.40025 7.69428 10.1223 6.97226C10.8443 6.25025 11.2499 5.27099 11.2499 4.2499ZM4.9499 4.2499C4.9499 3.92816 5.01327 3.60958 5.1364 3.31233C5.25952 3.01508 5.43999 2.74499 5.66749 2.51749C5.895 2.28999 6.16508 2.10952 6.46233 1.9864C6.75958 1.86327 7.07816 1.7999 7.3999 1.7999C7.72164 1.7999 8.04023 1.86327 8.33748 1.9864C8.63472 2.10952 8.90481 2.28999 9.13231 2.51749C9.35982 2.74499 9.54028 3.01508 9.66341 3.31233C9.78653 3.60958 9.8499 3.92816 9.8499 4.2499C9.8499 4.89968 9.59178 5.52285 9.13231 5.98231C8.67285 6.44178 8.04968 6.6999 7.3999 6.6999C6.75012 6.6999 6.12696 6.44178 5.66749 5.98231C5.20803 5.52285 4.9499 4.89968 4.9499 4.2499ZM2.4999 9.4999H8.3561C8.1265 9.9339 7.9557 10.4043 7.8549 10.8999H2.4999C2.31425 10.8999 2.1362 10.9737 2.00493 11.1049C1.87365 11.2362 1.7999 11.4143 1.7999 11.5999V12.2999C1.7999 14.0639 3.3385 15.9595 6.1343 16.4019C5.6835 16.7099 5.3083 17.1201 5.0409 17.5975C2.0869 16.7981 0.399902 14.5217 0.399902 12.2999V11.5999C0.399902 11.0429 0.621152 10.5088 1.01498 10.115C1.4088 9.72115 1.94295 9.4999 2.4999 9.4999ZM10.0305 9.4999C10.7361 8.6459 11.8043 8.0999 12.9999 8.0999C13.8383 8.09844 14.6542 8.3713 15.323 8.87686C15.9919 9.38241 16.477 10.0929 16.7043 10.8999C16.9069 11.6202 16.8955 12.3839 16.6714 13.0978C16.4474 13.8117 16.0203 14.445 15.4424 14.9203C14.8645 15.3956 14.1608 15.6924 13.4171 15.7746C12.6733 15.8567 11.9218 15.7205 11.2541 15.3827C10.74 15.1211 10.2913 14.7473 9.94115 14.2889C9.59096 13.8306 9.34823 13.2994 9.2309 12.7347C9.11357 12.1699 9.12463 11.586 9.26328 11.0261C9.40192 10.4662 9.6646 9.94464 10.0319 9.4999H10.0305ZM10.7865 10.8999C10.6486 11.1908 10.5694 11.5059 10.5533 11.8274C10.5372 12.1489 10.5846 12.4704 10.6927 12.7735C10.8009 13.0767 10.9677 13.3556 11.1837 13.5943C11.3996 13.833 11.6605 14.0268 11.9513 14.1647C12.2422 14.3026 12.5573 14.3818 12.8788 14.3979C13.2003 14.414 13.5218 14.3666 13.8249 14.2585C14.1281 14.1503 14.407 13.9835 14.6457 13.7675C14.8844 13.5516 15.0782 13.2908 15.2161 12.9999C15.4946 12.4123 15.5282 11.7382 15.3097 11.1258C15.0911 10.5134 14.6382 10.0129 14.0506 9.7344C13.463 9.45592 12.7889 9.42227 12.1765 9.64085C11.5641 9.85942 11.0636 10.3123 10.7851 10.8999H10.7865ZM20.9589 17.5975C20.6922 17.1198 20.3179 16.7109 19.8655 16.4033C22.6599 15.9595 24.1999 14.0625 24.1999 12.2999V11.5999C24.1999 11.4143 24.1262 11.2362 23.9949 11.1049C23.8636 10.9737 23.6856 10.8999 23.4999 10.8999H18.1449C18.046 10.4118 17.8777 9.94032 17.6451 9.4999H23.4999C24.0569 9.4999 24.591 9.72115 24.9848 10.115C25.3787 10.5088 25.5999 11.0429 25.5999 11.5999V12.2999C25.5999 14.5217 23.9115 16.7967 20.9589 17.5975ZM19.2817 17.7193C18.8996 17.3839 18.4083 17.1992 17.8999 17.1999H8.0999C7.82392 17.1992 7.55051 17.253 7.29539 17.3583C7.04028 17.4635 6.80848 17.6182 6.61333 17.8133C6.41818 18.0085 6.26352 18.2403 6.15825 18.4954C6.05298 18.7505 5.99916 19.0239 5.9999 19.2999V19.9999C5.9999 22.7593 8.6039 25.5999 12.9999 25.5999C17.3959 25.5999 19.9999 22.7593 19.9999 19.9999V19.2999C19.9999 18.6699 19.7227 18.1043 19.2817 17.7179V17.7193ZM7.3999 19.2999C7.3999 19.1143 7.47365 18.9362 7.60493 18.8049C7.7362 18.6737 7.91425 18.5999 8.0999 18.5999H17.8999C18.0856 18.5999 18.2636 18.6737 18.3949 18.8049C18.5262 18.9362 18.5999 19.1143 18.5999 19.2999V19.9999C18.5999 22.0131 16.5951 24.1999 12.9999 24.1999C9.4047 24.1999 7.3999 22.0131 7.3999 19.9999V19.2999ZM18.5999 0.399902C19.621 0.399902 20.6003 0.805526 21.3223 1.52754C22.0443 2.24956 22.4499 3.22882 22.4499 4.2499C22.4499 5.27099 22.0443 6.25025 21.3223 6.97226C20.6003 7.69428 19.621 8.0999 18.5999 8.0999C17.5788 8.0999 16.5996 7.69428 15.8775 6.97226C15.1555 6.25025 14.7499 5.27099 14.7499 4.2499C14.7499 3.22882 15.1555 2.24956 15.8775 1.52754C16.5996 0.805526 17.5788 0.399902 18.5999 0.399902ZM18.5999 1.7999C17.9501 1.7999 17.327 2.05803 16.8675 2.51749C16.408 2.97696 16.1499 3.60012 16.1499 4.2499C16.1499 4.89968 16.408 5.52285 16.8675 5.98231C17.327 6.44178 17.9501 6.6999 18.5999 6.6999C19.2497 6.6999 19.8729 6.44178 20.3323 5.98231C20.7918 5.52285 21.0499 4.89968 21.0499 4.2499C21.0499 3.60012 20.7918 2.97696 20.3323 2.51749C19.8729 2.05803 19.2497 1.7999 18.5999 1.7999Z" fill="#42687C"/>
</svg>
