<svg width="24" height="25" viewBox="0 0 24 25" fill="none" xmlns="http://www.w3.org/2000/svg">
    <path d="M11.9997 2.28223C9.89001 2.28223 7.82772 2.90782 6.0736 4.07988C4.31947 5.25195 2.9523 6.91786 2.14496 8.86694C1.33763 10.816 1.12639 12.9607 1.53797 15.0299C1.94955 17.099 2.96545 18.9996 4.45721 20.4914C5.94897 21.9831 7.84959 22.999 9.91872 23.4106C11.9878 23.8222 14.1326 23.6109 16.0816 22.8036C18.0307 21.9963 19.6966 20.6291 20.8687 18.875C22.0408 17.1209 22.6663 15.0586 22.6663 12.9489C22.6663 10.1199 21.5425 7.40681 19.5422 5.40642C17.5418 3.40603 14.8287 2.28223 11.9997 2.28223ZM11.9997 22.2822C10.1537 22.2822 8.34922 21.7348 6.81436 20.7093C5.2795 19.6837 4.08322 18.226 3.3768 16.5206C2.67039 14.8152 2.48555 12.9385 2.84568 11.128C3.20581 9.31756 4.09473 7.65452 5.40002 6.34923C6.70531 5.04394 8.36835 4.15503 10.1788 3.7949C11.9893 3.43477 13.8659 3.6196 15.5714 4.32602C17.2768 5.03244 18.7345 6.22871 19.7601 7.76357C20.7856 9.29843 21.333 11.1029 21.333 12.9489C21.333 15.4242 20.3497 17.7982 18.5993 19.5486C16.849 21.2989 14.475 22.2822 11.9997 22.2822Z" fill="black"/>
    <path d="M12.1937 6.89618C11.4712 6.88424 10.755 7.03156 10.096 7.32768C9.4369 7.6238 8.85114 8.06144 8.38033 8.60951C8.31492 8.67013 8.26233 8.74326 8.22569 8.82456C8.18904 8.90586 8.16909 8.99369 8.16699 9.08285C8.16695 9.1651 8.18345 9.24653 8.21552 9.32227C8.24758 9.39802 8.29456 9.46654 8.35365 9.52377C8.41273 9.58099 8.48273 9.62574 8.55947 9.65536C8.6362 9.68498 8.71811 9.69886 8.80033 9.69618C8.97644 9.69182 9.14485 9.62303 9.27366 9.50285C9.62997 9.0853 10.0725 8.7499 10.5708 8.51973C11.0691 8.28956 11.6114 8.17008 12.1603 8.16951C13.7337 8.16951 14.7137 9.18285 14.7137 10.4428V10.4762C14.7137 11.9495 13.5403 12.7695 11.687 12.9095C11.6119 12.9124 11.5384 12.9311 11.471 12.9644C11.4037 12.9977 11.3442 13.0449 11.2964 13.1028C11.2486 13.1607 11.2135 13.228 11.1935 13.3004C11.1735 13.3728 11.169 13.4486 11.1803 13.5229V15.3562C11.1969 15.5212 11.2744 15.6741 11.3977 15.7851C11.5209 15.896 11.6811 15.957 11.847 15.9562H11.9203C12.0853 15.9396 12.2382 15.8621 12.3492 15.7388C12.4601 15.6156 12.5212 15.4554 12.5203 15.2895V13.9162C14.5203 13.6362 16.1403 12.5828 16.1403 10.3962V10.3628C16.1203 8.36285 14.5603 6.89618 12.1937 6.89618Z" fill="black"/>
    <path d="M11.8534 19.2497C12.3136 19.2497 12.6867 18.8766 12.6867 18.4163C12.6867 17.9561 12.3136 17.583 11.8534 17.583C11.3931 17.583 11.02 17.9561 11.02 18.4163C11.02 18.8766 11.3931 19.2497 11.8534 19.2497Z" fill="black"/>
</svg>
