<svg width="183" height="134" viewBox="0 0 183 134" fill="none" xmlns="http://www.w3.org/2000/svg">
    <path d="M122.492 12.2179C118.619 8.34437 114.02 5.27169 108.959 3.17534C103.898 1.07898 98.4735 -1.24074e-06 92.9954 0C87.5174 1.24074e-06 82.093 1.07898 77.0319 3.17534C71.9708 5.2717 67.3723 8.34439 63.4987 12.218L71.8183 20.5375C74.5993 17.7565 77.9009 15.5505 81.5344 14.0454C85.168 12.5403 89.0625 11.7657 92.9954 11.7657C96.9284 11.7657 100.823 12.5403 104.456 14.0454C108.09 15.5505 111.392 17.7565 114.173 20.5375L122.492 12.2179Z" fill="#42687C"/>
    <path d="M126.386 66.7201C131.639 59.706 134.55 51.216 134.705 42.4545C134.86 33.693 132.253 25.1051 127.252 17.9093L117.59 24.6237C121.181 29.7899 123.053 35.9556 122.941 42.2459C122.83 48.5362 122.437 53.0148 118.666 58.0505L126.386 66.7201Z" fill="#95B9D1"/>
    <path d="M57.122 20.4292C53.3645 26.762 51.3503 33.9766 51.2841 41.3399C51.2179 48.7033 53.1019 55.9529 56.7449 62.3523L66.9699 56.5316C64.3544 51.9371 63.0018 46.7323 63.0493 41.4458C63.0871 37.2412 63.8244 34.4218 65.8664 30.9213L57.122 20.4292Z" fill="#95B9D1"/>
    <path d="M60.3177 67.6432C63.9563 72.229 68.5193 75.9976 73.7101 78.7039C78.9009 81.4103 84.6032 82.9938 90.4462 83.3515C96.2892 83.7092 102.142 82.8331 107.624 80.7802C113.106 78.7273 118.095 75.5435 122.266 71.4358L114.01 63.053C111.016 66.002 107.434 68.2878 103.498 69.7617C99.5622 71.2356 95.3602 71.8646 91.1652 71.6078C86.9702 71.351 82.8763 70.2141 79.1495 68.2711C75.4228 66.3281 72.1468 63.6224 69.5344 60.3301L60.3177 67.6432Z" fill="#42687C"/>
    <rect x="68.7468" y="7.8313" width="81.927" height="11.372" transform="rotate(49.9742 68.7468 7.8313)" fill="#42687C"/>
    <path d="M130.973 29.0137L107.154 46.2032L99.2423 37.4681L124.318 19.7923L130.973 29.0137Z" fill="#95B9D1"/>
    <path d="M1.24898 101.091H4.51425L7.28414 107.845H7.41198L10.1819 101.091H13.4471V112H10.8797V105.299H10.7891L8.16837 111.931H6.52774L3.907 105.262H3.81645V112H1.24898V101.091ZM25.3883 106.545C25.3883 107.746 25.1574 108.763 24.6958 109.598C24.2342 110.432 23.6092 111.066 22.8208 111.499C22.036 111.933 21.1553 112.149 20.1788 112.149C19.1986 112.149 18.3162 111.931 17.5314 111.494C16.7466 111.057 16.1234 110.423 15.6617 109.592C15.2036 108.758 14.9746 107.742 14.9746 106.545C14.9746 105.345 15.2036 104.328 15.6617 103.493C16.1234 102.659 16.7466 102.025 17.5314 101.592C18.3162 101.158 19.1986 100.942 20.1788 100.942C21.1553 100.942 22.036 101.158 22.8208 101.592C23.6092 102.025 24.2342 102.659 24.6958 103.493C25.1574 104.328 25.3883 105.345 25.3883 106.545ZM22.693 106.545C22.693 105.835 22.5918 105.235 22.3893 104.745C22.1905 104.255 21.9028 103.884 21.5264 103.632C21.1535 103.38 20.7043 103.254 20.1788 103.254C19.6567 103.254 19.2075 103.38 18.8311 103.632C18.4547 103.884 18.1653 104.255 17.9628 104.745C17.764 105.235 17.6646 105.835 17.6646 106.545C17.6646 107.256 17.764 107.856 17.9628 108.346C18.1653 108.836 18.4547 109.207 18.8311 109.459C19.2075 109.711 19.6567 109.837 20.1788 109.837C20.7043 109.837 21.1535 109.711 21.5264 109.459C21.9028 109.207 22.1905 108.836 22.3893 108.346C22.5918 107.856 22.693 107.256 22.693 106.545ZM30.96 112H26.9277V101.091H30.9547C32.0662 101.091 33.0232 101.309 33.8258 101.746C34.6319 102.179 35.2533 102.804 35.6901 103.621C36.1269 104.434 36.3453 105.407 36.3453 106.54C36.3453 107.676 36.1269 108.653 35.6901 109.47C35.2569 110.287 34.6372 110.913 33.8311 111.35C33.025 111.783 32.068 112 30.96 112ZM29.5644 109.752H30.8588C31.4696 109.752 31.9863 109.649 32.4089 109.443C32.835 109.234 33.1564 108.895 33.373 108.426C33.5932 107.953 33.7033 107.325 33.7033 106.54C33.7033 105.755 33.5932 105.13 33.373 104.665C33.1528 104.196 32.8279 103.859 32.3982 103.653C31.9721 103.444 31.4465 103.339 30.8215 103.339H29.5644V109.752ZM37.8847 112V101.091H45.4913V103.232H40.5214V105.469H45.1024V107.616H40.5214V109.859H45.4913V112H37.8847ZM47.1425 112V101.091H51.6489C52.4657 101.091 53.1706 101.238 53.7636 101.533C54.3602 101.824 54.8201 102.243 55.1432 102.79C55.4664 103.333 55.628 103.978 55.628 104.724C55.628 105.48 55.4628 106.123 55.1326 106.652C54.8023 107.178 54.3336 107.579 53.7263 107.856C53.1191 108.129 52.4 108.266 51.569 108.266H48.7192V106.189H51.079C51.4767 106.189 51.8087 106.137 52.0751 106.034C52.3449 105.928 52.5491 105.768 52.6876 105.555C52.8261 105.338 52.8954 105.061 52.8954 104.724C52.8954 104.386 52.8261 104.108 52.6876 103.887C52.5491 103.664 52.3449 103.497 52.0751 103.387C51.8052 103.273 51.4731 103.216 51.079 103.216H49.7793V112H47.1425ZM53.2842 107.014L56.0008 112H53.1244L50.4611 107.014H53.2842ZM66.3586 101.091V112H64.1214L59.7801 105.704H59.7109V112H57.0742V101.091H59.3434L63.6367 107.376H63.7272V101.091H66.3586ZM81.1416 105.043H78.4782C78.4427 104.77 78.3699 104.523 78.2598 104.303C78.1497 104.083 78.0041 103.895 77.823 103.738C77.6419 103.582 77.4271 103.463 77.1785 103.381C76.9335 103.296 76.6618 103.254 76.3635 103.254C75.8344 103.254 75.3781 103.383 74.9945 103.642C74.6146 103.902 74.3216 104.276 74.1156 104.766C73.9132 105.256 73.812 105.849 73.812 106.545C73.812 107.27 73.915 107.877 74.121 108.367C74.3305 108.854 74.6234 109.221 74.9999 109.47C75.3798 109.715 75.8291 109.837 76.3475 109.837C76.6387 109.837 76.9033 109.8 77.1412 109.725C77.3827 109.651 77.594 109.543 77.7751 109.401C77.9597 109.255 78.1107 109.079 78.2279 108.873C78.3486 108.664 78.432 108.428 78.4782 108.165L81.1416 108.181C81.0954 108.664 80.9551 109.14 80.7207 109.608C80.4899 110.077 80.1721 110.505 79.7673 110.892C79.3624 111.276 78.8688 111.581 78.2864 111.808C77.7076 112.036 77.0435 112.149 76.2943 112.149C75.307 112.149 74.4228 111.933 73.6416 111.499C72.8639 111.062 72.2495 110.427 71.7985 109.592C71.3475 108.758 71.122 107.742 71.122 106.545C71.122 105.345 71.3511 104.328 71.8092 103.493C72.2673 102.659 72.8869 102.025 73.6682 101.592C74.4494 101.158 75.3248 100.942 76.2943 100.942C76.9548 100.942 77.5656 101.034 78.1266 101.219C78.6877 101.4 79.1813 101.666 79.6075 102.018C80.0336 102.366 80.3798 102.794 80.6462 103.301C80.9125 103.809 81.0776 104.39 81.1416 105.043ZM92.9469 106.545C92.9469 107.746 92.716 108.763 92.2544 109.598C91.7927 110.432 91.1677 111.066 90.3794 111.499C89.5946 111.933 88.7139 112.149 87.7373 112.149C86.7572 112.149 85.8748 111.931 85.09 111.494C84.3052 111.057 83.682 110.423 83.2203 109.592C82.7622 108.758 82.5332 107.742 82.5332 106.545C82.5332 105.345 82.7622 104.328 83.2203 103.493C83.682 102.659 84.3052 102.025 85.09 101.592C85.8748 101.158 86.7572 100.942 87.7373 100.942C88.7139 100.942 89.5946 101.158 90.3794 101.592C91.1677 102.025 91.7927 102.659 92.2544 103.493C92.716 104.328 92.9469 105.345 92.9469 106.545ZM90.2516 106.545C90.2516 105.835 90.1503 105.235 89.9479 104.745C89.7491 104.255 89.4614 103.884 89.085 103.632C88.7121 103.38 88.2629 103.254 87.7373 103.254C87.2153 103.254 86.7661 103.38 86.3897 103.632C86.0133 103.884 85.7239 104.255 85.5214 104.745C85.3226 105.235 85.2231 105.835 85.2231 106.545C85.2231 107.256 85.3226 107.856 85.5214 108.346C85.7239 108.836 86.0133 109.207 86.3897 109.459C86.7661 109.711 87.2153 109.837 87.7373 109.837C88.2629 109.837 88.7121 109.711 89.085 109.459C89.4614 109.207 89.7491 108.836 89.9479 108.346C90.1503 107.856 90.2516 107.256 90.2516 106.545ZM94.4863 112V101.091H98.9927C99.8094 101.091 100.514 101.238 101.107 101.533C101.704 101.824 102.164 102.243 102.487 102.79C102.81 103.333 102.972 103.978 102.972 104.724C102.972 105.48 102.807 106.123 102.476 106.652C102.146 107.178 101.677 107.579 101.07 107.856C100.463 108.129 99.7437 108.266 98.9128 108.266H96.063V106.189H98.4227C98.8204 106.189 99.1525 106.137 99.4188 106.034C99.6887 105.928 99.8929 105.768 100.031 105.555C100.17 105.338 100.239 105.061 100.239 104.724C100.239 104.386 100.17 104.108 100.031 103.887C99.8929 103.664 99.6887 103.497 99.4188 103.387C99.1489 103.273 98.8169 103.216 98.4227 103.216H97.123V112H94.4863ZM100.628 107.014L103.345 112H100.468L97.8048 107.014H100.628ZM104.418 112V101.091H108.924C109.741 101.091 110.446 101.251 111.039 101.57C111.636 101.886 112.095 102.328 112.419 102.897C112.742 103.461 112.903 104.118 112.903 104.868C112.903 105.62 112.738 106.279 112.408 106.844C112.081 107.405 111.614 107.84 111.007 108.149C110.4 108.458 109.679 108.612 108.844 108.612H106.064V106.535H108.354C108.752 106.535 109.084 106.466 109.35 106.327C109.62 106.189 109.825 105.995 109.963 105.746C110.102 105.494 110.171 105.201 110.171 104.868C110.171 104.53 110.102 104.239 109.963 103.994C109.825 103.745 109.62 103.554 109.35 103.419C109.081 103.284 108.749 103.216 108.354 103.216H107.055V112H104.418ZM124.5 106.545C124.5 107.746 124.269 108.763 123.807 109.598C123.345 110.432 122.72 111.066 121.932 111.499C121.147 111.933 120.267 112.149 119.29 112.149C118.31 112.149 117.428 111.931 116.643 111.494C115.858 111.057 115.235 110.423 114.773 109.592C114.315 108.758 114.086 107.742 114.086 106.545C114.086 105.345 114.315 104.328 114.773 103.493C115.235 102.659 115.858 102.025 116.643 101.592C117.428 101.158 118.31 100.942 119.29 100.942C120.267 100.942 121.147 101.158 121.932 101.592C122.72 102.025 123.345 102.659 123.807 103.493C124.269 104.328 124.5 105.345 124.5 106.545ZM121.804 106.545C121.804 105.835 121.703 105.235 121.501 104.745C121.302 104.255 121.014 103.884 120.638 103.632C120.265 103.38 119.816 103.254 119.29 103.254C118.768 103.254 118.319 103.38 117.942 103.632C117.566 103.884 117.277 104.255 117.074 104.745C116.875 105.235 116.776 105.835 116.776 106.545C116.776 107.256 116.875 107.856 117.074 108.346C117.277 108.836 117.566 109.207 117.942 109.459C118.319 109.711 118.768 109.837 119.29 109.837C119.816 109.837 120.265 109.711 120.638 109.459C121.014 109.207 121.302 108.836 121.501 108.346C121.703 107.856 121.804 107.256 121.804 106.545ZM126.039 112V101.091H130.545C131.362 101.091 132.067 101.238 132.66 101.533C133.257 101.824 133.717 102.243 134.04 102.79C134.363 103.333 134.524 103.978 134.524 104.724C134.524 105.48 134.359 106.123 134.029 106.652C133.699 107.178 133.23 107.579 132.623 107.856C132.016 108.129 131.296 108.266 130.466 108.266H127.616V106.189H129.975C130.373 106.189 130.705 106.137 130.972 106.034C131.241 105.928 131.446 105.768 131.584 105.555C131.723 105.338 131.792 105.061 131.792 104.724C131.792 104.386 131.723 104.108 131.584 103.887C131.446 103.664 131.241 103.497 130.972 103.387C130.702 103.273 130.37 103.216 129.975 103.216H128.676V112H126.039ZM132.181 107.014L134.897 112H132.021L129.358 107.014H132.181ZM138.33 112H135.497L139.177 101.091H142.688L146.368 112H143.535L140.972 103.839H140.887L138.33 112ZM137.952 107.707H143.875V109.71H137.952V107.707ZM145.824 103.232V101.091H155.044V103.232H151.736V112H149.137V103.232H145.824ZM158.969 101.091V112H156.332V101.091H158.969ZM170.92 106.545C170.92 107.746 170.69 108.763 170.228 109.598C169.766 110.432 169.141 111.066 168.353 111.499C167.568 111.933 166.688 112.149 165.711 112.149C164.731 112.149 163.848 111.931 163.064 111.494C162.279 111.057 161.656 110.423 161.194 109.592C160.736 108.758 160.507 107.742 160.507 106.545C160.507 105.345 160.736 104.328 161.194 103.493C161.656 102.659 162.279 102.025 163.064 101.592C163.848 101.158 164.731 100.942 165.711 100.942C166.688 100.942 167.568 101.158 168.353 101.592C169.141 102.025 169.766 102.659 170.228 103.493C170.69 104.328 170.92 105.345 170.92 106.545ZM168.225 106.545C168.225 105.835 168.124 105.235 167.922 104.745C167.723 104.255 167.435 103.884 167.059 103.632C166.686 103.38 166.237 103.254 165.711 103.254C165.189 103.254 164.74 103.38 164.363 103.632C163.987 103.884 163.697 104.255 163.495 104.745C163.296 105.235 163.197 105.835 163.197 106.545C163.197 107.256 163.296 107.856 163.495 108.346C163.697 108.836 163.987 109.207 164.363 109.459C164.74 109.711 165.189 109.837 165.711 109.837C166.237 109.837 166.686 109.711 167.059 109.459C167.435 109.207 167.723 108.836 167.922 108.346C168.124 107.856 168.225 107.256 168.225 106.545ZM181.744 101.091V112H179.507L175.166 105.704H175.097V112H172.46V101.091H174.729L179.022 107.376H179.113V101.091H181.744ZM66.1129 122.362C66.0774 121.971 65.9194 121.667 65.6388 121.451C65.3619 121.23 64.9659 121.12 64.451 121.12C64.1101 121.12 63.826 121.165 63.5987 121.254C63.3714 121.342 63.201 121.465 63.0874 121.621C62.9737 121.774 62.9151 121.95 62.9116 122.148C62.9045 122.312 62.9364 122.456 63.0075 122.58C63.082 122.704 63.1886 122.814 63.3271 122.91C63.4691 123.002 63.6396 123.084 63.8384 123.155C64.0373 123.226 64.261 123.288 64.5096 123.342L65.4471 123.555C65.9869 123.672 66.4627 123.828 66.8746 124.023C67.2901 124.219 67.6381 124.451 67.9187 124.721C68.2028 124.991 68.4176 125.302 68.5632 125.653C68.7088 126.005 68.7834 126.399 68.7869 126.836C68.7834 127.525 68.6094 128.116 68.2649 128.61C67.9205 129.103 67.4251 129.482 66.7788 129.744C66.136 130.007 65.3601 130.138 64.451 130.138C63.5384 130.138 62.7429 130.002 62.0646 129.728C61.3864 129.455 60.859 129.039 60.4826 128.482C60.1062 127.924 59.9126 127.219 59.902 126.367H62.4268C62.4482 126.719 62.5423 127.012 62.7092 127.246C62.8761 127.48 63.1051 127.658 63.3963 127.779C63.6911 127.9 64.032 127.96 64.419 127.96C64.7741 127.96 65.076 127.912 65.3246 127.816C65.5767 127.72 65.7702 127.587 65.9052 127.417C66.0401 127.246 66.1094 127.051 66.1129 126.831C66.1094 126.625 66.0455 126.449 65.9212 126.303C65.7969 126.154 65.6051 126.026 65.3459 125.92C65.0902 125.81 64.7635 125.708 64.3658 125.616L63.2259 125.35C62.2812 125.133 61.5373 124.783 60.994 124.3C60.4506 123.814 60.1808 123.157 60.1843 122.33C60.1808 121.655 60.3619 121.064 60.7276 120.556C61.0934 120.048 61.5994 119.652 62.2457 119.368C62.892 119.084 63.6289 118.942 64.4563 118.942C65.3015 118.942 66.0348 119.086 66.6562 119.373C67.2812 119.657 67.766 120.057 68.1104 120.572C68.4549 121.087 68.6307 121.683 68.6378 122.362H66.1129ZM69.5753 119.091H72.521L74.8274 123.656H74.9233L77.2298 119.091H80.1754L76.1857 126.357V130H73.565V126.357L69.5753 119.091ZM87.1774 122.362C87.1419 121.971 86.9838 121.667 86.7033 121.451C86.4263 121.23 86.0304 121.12 85.5154 121.12C85.1745 121.12 84.8904 121.165 84.6632 121.254C84.4359 121.342 84.2654 121.465 84.1518 121.621C84.0382 121.774 83.9796 121.95 83.976 122.148C83.9689 122.312 84.0009 122.456 84.0719 122.58C84.1465 122.704 84.253 122.814 84.3915 122.91C84.5336 123.002 84.704 123.084 84.9029 123.155C85.1017 123.226 85.3255 123.288 85.574 123.342L86.5115 123.555C87.0513 123.672 87.5272 123.828 87.9391 124.023C88.3546 124.219 88.7026 124.451 88.9831 124.721C89.2672 124.991 89.4821 125.302 89.6277 125.653C89.7733 126.005 89.8478 126.399 89.8514 126.836C89.8478 127.525 89.6738 128.116 89.3294 128.61C88.9849 129.103 88.4895 129.482 87.8432 129.744C87.2005 130.007 86.4245 130.138 85.5154 130.138C84.6028 130.138 83.8074 130.002 83.1291 129.728C82.4508 129.455 81.9235 129.039 81.5471 128.482C81.1706 127.924 80.9771 127.219 80.9664 126.367H83.4913C83.5126 126.719 83.6067 127.012 83.7736 127.246C83.9405 127.48 84.1696 127.658 84.4608 127.779C84.7555 127.9 85.0964 127.96 85.4835 127.96C85.8386 127.96 86.1404 127.912 86.389 127.816C86.6412 127.72 86.8347 127.587 86.9696 127.417C87.1046 127.246 87.1738 127.051 87.1774 126.831C87.1738 126.625 87.1099 126.449 86.9856 126.303C86.8613 126.154 86.6696 126.026 86.4103 125.92C86.1547 125.81 85.8279 125.708 85.4302 125.616L84.2903 125.35C83.3457 125.133 82.6017 124.783 82.0584 124.3C81.5151 123.814 81.2452 123.157 81.2488 122.33C81.2452 121.655 81.4263 121.064 81.7921 120.556C82.1578 120.048 82.6639 119.652 83.3102 119.368C83.9565 119.084 84.6934 118.942 85.5208 118.942C86.3659 118.942 87.0993 119.086 87.7207 119.373C88.3457 119.657 88.8304 120.057 89.1749 120.572C89.5194 121.087 89.6951 121.683 89.7022 122.362H87.1774ZM90.8262 121.232V119.091H100.047V121.232H96.7388V130H94.1394V121.232H90.8262ZM101.334 130V119.091H108.941V121.232H103.971V123.469H108.552V125.616H103.971V127.859H108.941V130H101.334ZM110.592 119.091H113.858L116.627 125.845H116.755L119.525 119.091H122.79V130H120.223V123.299H120.132L117.512 129.931H115.871L113.25 123.262H113.16V130H110.592V119.091Z" fill="black"/>
</svg>
