<svg width="21" height="17" viewBox="0 0 21 17" fill="none" xmlns="http://www.w3.org/2000/svg">
    <path d="M19.4445 0.833252H1.55561C1.21672 0.833252 0.891714 0.967875 0.652084 1.2075C0.412455 1.44713 0.277832 1.77214 0.277832 2.11103V14.8888C0.277832 15.2277 0.412455 15.5527 0.652084 15.7923C0.891714 16.032 1.21672 16.1666 1.55561 16.1666H19.4445C19.7834 16.1666 20.1084 16.032 20.348 15.7923C20.5877 15.5527 20.7223 15.2277 20.7223 14.8888V2.11103C20.7223 1.77214 20.5877 1.44713 20.348 1.2075C20.1084 0.967875 19.7834 0.833252 19.4445 0.833252V0.833252ZM18.4606 14.8888H2.61617L7.08839 10.2633L6.16839 9.3752L1.55561 14.1477V3.08214L9.497 10.9852C9.73641 11.2232 10.0603 11.3568 10.3978 11.3568C10.7354 11.3568 11.0593 11.2232 11.2987 10.9852L19.4445 2.88409V14.0646L14.7423 9.36242L13.8414 10.2633L18.4606 14.8888ZM2.39255 2.11103H18.4095L10.3978 10.078L2.39255 2.11103Z" fill="#BDBDBD"/>
</svg>
