<svg width="20" height="21" viewBox="0 0 20 21" fill="none" xmlns="http://www.w3.org/2000/svg">
    <path d="M3.3475 15.3543C3.47725 15.4975 3.57667 15.6705 3.63868 15.8609C3.70069 16.0512 3.72376 16.2543 3.70625 16.4556C3.6184 17.3873 3.45185 18.3079 3.20875 19.2056C4.9525 18.7615 6.0175 18.2473 6.50125 17.9778C6.77563 17.8249 7.09161 17.7887 7.38875 17.876C8.24054 18.1258 9.11846 18.2515 10 18.25C14.995 18.25 18.75 14.3904 18.75 10C18.75 5.611 14.995 1.75 10 1.75C5.005 1.75 1.25 5.611 1.25 10C1.25 12.0185 2.02125 13.8913 3.3475 15.3543ZM2.73125 20.7236C2.43509 20.7882 2.13796 20.8473 1.84 20.901C1.59 20.945 1.4 20.659 1.49875 20.4033C1.60974 20.1153 1.71147 19.8232 1.80375 19.5274L1.8075 19.5136C2.1175 18.5236 2.37 17.3851 2.4625 16.325C0.92875 14.6338 0 12.42 0 10C0 4.68425 4.4775 0.375 10 0.375C15.5225 0.375 20 4.68425 20 10C20 15.3158 15.5225 19.625 10 19.625C9.00956 19.6265 8.02323 19.485 7.06625 19.2043C6.41625 19.5659 5.0175 20.2245 2.73125 20.7236Z" fill="#9099AA"/>
</svg>
