<svg width="19" height="20" viewBox="0 0 19 20" fill="none" xmlns="http://www.w3.org/2000/svg">
    <path d="M11.8447 18.3966V13.7217C11.8447 13.515 11.7644 13.3168 11.6215 13.1707C11.4785 13.0246 11.2847 12.9425 11.0826 12.9425H8.03449C7.83239 12.9425 7.63856 13.0246 7.49565 13.1707C7.35274 13.3168 7.27246 13.515 7.27246 13.7217V18.3966C7.27246 18.6032 7.19219 18.8014 7.0493 18.9475C6.90641 19.0936 6.71261 19.1757 6.51052 19.1757L1.93889 19.1764C1.83881 19.1764 1.7397 19.1562 1.64724 19.1171C1.55477 19.0779 1.47076 19.0205 1.39999 18.9482C1.32921 18.8758 1.27307 18.7899 1.23477 18.6954C1.19647 18.6009 1.17676 18.4995 1.17676 18.3972V9.39226C1.17676 9.28371 1.19894 9.17636 1.24189 9.07709C1.28483 8.97781 1.34759 8.88881 1.42614 8.81579L9.04594 1.73197C9.18621 1.60156 9.36898 1.5293 9.55856 1.5293C9.74815 1.52929 9.93092 1.60154 10.0712 1.73193L17.692 8.81578C17.7706 8.88881 17.8334 8.97782 17.8763 9.07709C17.9193 9.17637 17.9415 9.28373 17.9415 9.39229V18.3972C17.9415 18.4995 17.9218 18.6009 17.8835 18.6954C17.8452 18.7899 17.789 18.8758 17.7182 18.9482C17.6475 19.0205 17.5635 19.0779 17.471 19.1171C17.3785 19.1562 17.2794 19.1764 17.1793 19.1764L12.6066 19.1757C12.4045 19.1757 12.2107 19.0936 12.0678 18.9475C11.9249 18.8014 11.8447 18.6032 11.8447 18.3966V18.3966Z" stroke="#42687C" stroke-width="1.3" stroke-linecap="round" stroke-linejoin="round"/>
</svg>
