<svg width="28" height="20" viewBox="0 0 28 20" fill="none" xmlns="http://www.w3.org/2000/svg">
    <path d="M23.2403 8.66699C22.587 4.14699 18.707 0.666992 14.0003 0.666992C9.29366 0.666992 5.41366 4.14699 4.76033 8.66699H0.666992V11.3337H4.76033C5.41366 15.8537 9.29366 19.3337 14.0003 19.3337C18.707 19.3337 22.587 15.8537 23.2403 11.3337H27.3337V8.66699H23.2403ZM18.0003 13.3337C18.0003 14.067 17.4003 14.667 16.667 14.667H11.3337C10.6003 14.667 10.0003 14.067 10.0003 13.3337V9.33366C10.0003 8.60033 10.6003 8.00033 11.3337 8.00033V6.66699C11.3338 6.27853 11.4189 5.89479 11.5828 5.54263C11.7468 5.19046 11.9857 4.87837 12.2829 4.62819C12.5801 4.378 12.9283 4.19577 13.3033 4.09422C13.6782 3.99268 14.0708 3.97429 14.4537 4.04033C15.7603 4.25366 16.667 5.48033 16.667 6.81366V8.00033C17.4003 8.00033 18.0003 8.60033 18.0003 9.33366V13.3337ZM15.0003 11.3337C15.0003 11.8803 14.547 12.3337 14.0003 12.3337C13.4537 12.3337 13.0003 11.8803 13.0003 11.3337C13.0003 10.787 13.4537 10.3337 14.0003 10.3337C14.547 10.3337 15.0003 10.787 15.0003 11.3337ZM15.3337 6.66699V8.00033H12.667V6.66699C12.667 5.93366 13.267 5.33366 14.0003 5.33366C14.7337 5.33366 15.3337 5.93366 15.3337 6.66699Z" fill="black"/>
</svg>
