<svg width="26" height="27" viewBox="0 0 26 27" fill="none" xmlns="http://www.w3.org/2000/svg">
    <path fill-rule="evenodd" clip-rule="evenodd" d="M12.9999 13.5C15.3941 13.5 17.3333 11.4863 17.3333 9C17.3333 6.51375 15.3941 4.5 12.9999 4.5C10.6058 4.5 8.66659 6.51375 8.66659 9C8.66659 11.4863 10.6058 13.5 12.9999 13.5ZM18.4166 9C18.4166 12.1078 15.9926 14.625 12.9999 14.625C10.0072 14.625 7.58325 12.1078 7.58325 9C7.58325 5.89219 10.0072 3.375 12.9999 3.375C15.9926 3.375 18.4166 5.89219 18.4166 9Z" fill="#9099AA"/>
    <path fill-rule="evenodd" clip-rule="evenodd" d="M4.99579 19.2443C4.4525 19.6999 4.33333 20.0413 4.33333 20.25V22.5H21.6667V20.25C21.6667 20.0419 21.5475 19.6993 21.0037 19.2443C20.4728 18.7993 19.6809 18.3752 18.7211 18.0084C16.8025 17.2755 14.4912 16.875 13 16.875C11.5088 16.875 9.1975 17.2755 7.27892 18.0084C6.31908 18.3752 5.52717 18.7993 4.99579 19.2443ZM13 15.75C9.74567 15.75 3.25 17.4572 3.25 20.25V23.625H22.75V20.25C22.75 17.4572 16.2543 15.75 13 15.75Z" fill="#9099AA"/>
</svg>
