<svg width="20" height="21" viewBox="0 0 20 21" fill="none" xmlns="http://www.w3.org/2000/svg">
    <path d="M19.7704 16.78C19.1543 16.2308 18.6149 15.6012 18.1668 14.9081C17.6775 13.9514 17.3843 12.9066 17.3043 11.835V8.67893C17.3085 6.99585 16.698 5.36915 15.5874 4.10447C14.4769 2.83978 12.9427 2.02417 11.2732 1.81087V0.986706C11.2732 0.760498 11.1833 0.543555 11.0234 0.383603C10.8634 0.22365 10.6465 0.133789 10.4203 0.133789C10.1941 0.133789 9.97711 0.22365 9.81716 0.383603C9.6572 0.543555 9.56734 0.760498 9.56734 0.986706V1.82365C7.91278 2.05233 6.39716 2.87287 5.30118 4.1333C4.2052 5.39373 3.60314 7.00864 3.60651 8.67893V11.835C3.52649 12.9066 3.23326 13.9514 2.74401 14.9081C2.30374 15.5996 1.77302 16.2291 1.16595 16.78C1.0978 16.8399 1.04318 16.9136 1.00573 16.9962C0.968276 17.0788 0.948845 17.1685 0.94873 17.2592V18.1281C0.94873 18.2975 1.01604 18.46 1.13586 18.5799C1.25567 18.6997 1.41818 18.767 1.58762 18.767H19.3487C19.5182 18.767 19.6807 18.6997 19.8005 18.5799C19.9203 18.46 19.9876 18.2975 19.9876 18.1281V17.2592C19.9875 17.1685 19.9681 17.0788 19.9306 16.9962C19.8932 16.9136 19.8385 16.8399 19.7704 16.78ZM2.27762 17.4892C2.87205 16.915 3.39542 16.2715 3.83651 15.5725C4.45279 14.4171 4.81237 13.1422 4.89068 11.835V8.67893C4.86534 7.93017 4.99093 7.18398 5.25998 6.48477C5.52903 5.78556 5.93603 5.14765 6.45675 4.60901C6.97747 4.07038 7.60125 3.64203 8.29096 3.34949C8.98066 3.05695 9.72219 2.90619 10.4714 2.90619C11.2206 2.90619 11.9621 3.05695 12.6518 3.34949C13.3415 3.64203 13.9653 4.07038 14.486 4.60901C15.0067 5.14765 15.4137 5.78556 15.6828 6.48477C15.9518 7.18398 16.0774 7.93017 16.0521 8.67893V11.835C16.1304 13.1422 16.49 14.4171 17.1062 15.5725C17.5473 16.2715 18.0707 16.915 18.6651 17.4892H2.27762Z" fill="black"/>
    <path d="M10.5001 20.901C10.9025 20.8917 11.2887 20.7404 11.5904 20.4738C11.892 20.2073 12.0897 19.8426 12.1484 19.4443H8.78784C8.8482 19.8534 9.0551 20.2267 9.37006 20.4946C9.68502 20.7626 10.0866 20.907 10.5001 20.901Z" fill="black"/>
</svg>
