<svg width="18" height="22" viewBox="0 0 18 22" fill="none" xmlns="http://www.w3.org/2000/svg">
    <path d="M9.5625 9.075C9.5625 8.8562 9.65139 8.64635 9.80963 8.49164C9.96786 8.33692 10.1825 8.25 10.4062 8.25H14.3438C14.5675 8.25 14.7821 8.33692 14.9404 8.49164C15.0986 8.64635 15.1875 8.8562 15.1875 9.075C15.1875 9.2938 15.0986 9.50364 14.9404 9.65836C14.7821 9.81308 14.5675 9.9 14.3438 9.9H10.4062C10.1825 9.9 9.96786 9.81308 9.80963 9.65836C9.65139 9.50364 9.5625 9.2938 9.5625 9.075ZM10.4062 14.3C10.1825 14.3 9.96786 14.3869 9.80963 14.5416C9.65139 14.6964 9.5625 14.9062 9.5625 15.125C9.5625 15.3438 9.65139 15.5536 9.80963 15.7084C9.96786 15.8631 10.1825 15.95 10.4062 15.95H14.3438C14.5675 15.95 14.7821 15.8631 14.9404 15.7084C15.0986 15.5536 15.1875 15.3438 15.1875 15.125C15.1875 14.9062 15.0986 14.6964 14.9404 14.5416C14.7821 14.3869 14.5675 14.3 14.3438 14.3H10.4062ZM7.6275 8.558C7.7104 8.48247 7.77689 8.39139 7.823 8.29019C7.86912 8.18899 7.89392 8.07975 7.89592 7.96897C7.89791 7.8582 7.87707 7.74817 7.83464 7.64544C7.7922 7.54272 7.72904 7.4494 7.64892 7.37106C7.5688 7.29272 7.47336 7.23096 7.3683 7.18947C7.26324 7.14797 7.1507 7.12759 7.03741 7.12955C6.92412 7.1315 6.81239 7.15575 6.70889 7.20084C6.6054 7.24593 6.51225 7.31095 6.435 7.392L4.78125 9.009L4.2525 8.492C4.09255 8.34627 3.881 8.26694 3.66241 8.27071C3.44382 8.27448 3.23527 8.36106 3.08068 8.51222C2.92609 8.66337 2.83753 8.86729 2.83368 9.08103C2.82982 9.29476 2.91096 9.50161 3.06 9.658L4.185 10.758C4.3432 10.9125 4.55766 10.9993 4.78125 10.9993C5.00484 10.9993 5.2193 10.9125 5.3775 10.758L7.6275 8.558ZM7.6275 13.442C7.78551 13.5967 7.87426 13.8064 7.87426 14.025C7.87426 14.2436 7.78551 14.4533 7.6275 14.608L5.3775 16.808C5.2193 16.9625 5.00484 17.0493 4.78125 17.0493C4.55766 17.0493 4.3432 16.9625 4.185 16.808L3.06 15.708C2.9771 15.6325 2.91061 15.5414 2.8645 15.4402C2.81838 15.339 2.79358 15.2297 2.79158 15.119C2.78959 15.0082 2.81043 14.8982 2.85286 14.7954C2.8953 14.6927 2.95846 14.5994 3.03858 14.5211C3.1187 14.4427 3.21414 14.381 3.3192 14.3395C3.42426 14.298 3.5368 14.2776 3.65009 14.2795C3.76338 14.2815 3.87511 14.3057 3.97861 14.3508C4.0821 14.3959 4.17526 14.4609 4.2525 14.542L4.78125 15.059L6.435 13.442C6.5932 13.2875 6.80766 13.2007 7.03125 13.2007C7.25484 13.2007 7.4693 13.2875 7.6275 13.442ZM13.4933 2.2924C13.4461 1.66928 13.1597 1.08665 12.6914 0.661451C12.2232 0.236256 11.6078 -3.66275e-05 10.9688 4.25855e-09H7.03125C6.40863 1.83969e-05 5.80786 0.224408 5.3438 0.630269C4.87973 1.03613 4.58493 1.59499 4.51575 2.2H2.53125C1.85992 2.2 1.21609 2.46076 0.741386 2.92491C0.266685 3.38906 0 4.01859 0 4.675V19.525C0 20.1814 0.266685 20.8109 0.741386 21.2751C1.21609 21.7392 1.85992 22 2.53125 22H15.4688C15.8012 22 16.1303 21.936 16.4374 21.8116C16.7445 21.6872 17.0236 21.5049 17.2586 21.2751C17.4937 21.0453 17.6801 20.7724 17.8073 20.4721C17.9345 20.1719 18 19.85 18 19.525V4.675C18 4.34998 17.9345 4.02814 17.8073 3.72786C17.6801 3.42758 17.4937 3.15474 17.2586 2.92491C17.0236 2.69509 16.7445 2.51278 16.4374 2.3884C16.1303 2.26402 15.8012 2.2 15.4688 2.2H13.4843L13.4933 2.2924ZM13.4933 2.3056L13.5 2.475C13.5 2.4178 13.4978 2.3617 13.4944 2.3056H13.4933ZM7.03125 4.95H10.9688C11.8462 4.95 12.6191 4.5133 13.0736 3.85H15.4688C15.6925 3.85 15.9071 3.93692 16.0654 4.09164C16.2236 4.24635 16.3125 4.4562 16.3125 4.675V19.525C16.3125 19.7438 16.2236 19.9536 16.0654 20.1084C15.9071 20.2631 15.6925 20.35 15.4688 20.35H2.53125C2.30747 20.35 2.09286 20.2631 1.93463 20.1084C1.77639 19.9536 1.6875 19.7438 1.6875 19.525V4.675C1.6875 4.4562 1.77639 4.24635 1.93463 4.09164C2.09286 3.93692 2.30747 3.85 2.53125 3.85H4.92637C5.38087 4.5133 6.15375 4.95 7.03125 4.95ZM7.03125 1.65H10.9688C11.1925 1.65 11.4071 1.73692 11.5654 1.89164C11.7236 2.04635 11.8125 2.2562 11.8125 2.475C11.8125 2.6938 11.7236 2.90365 11.5654 3.05836C11.4071 3.21308 11.1925 3.3 10.9688 3.3H7.03125C6.80747 3.3 6.59286 3.21308 6.43463 3.05836C6.2764 2.90365 6.1875 2.6938 6.1875 2.475C6.1875 2.2562 6.2764 2.04635 6.43463 1.89164C6.59286 1.73692 6.80747 1.65 7.03125 1.65Z" fill="#9099AA"/>
</svg>
