<svg width="22" height="28" viewBox="0 0 22 28" fill="none" xmlns="http://www.w3.org/2000/svg">
    <path d="M21.3063 7.85703L13.8688 1.07578C13.6563 0.882031 13.4438 0.785156 13.125 0.785156H2.5C1.33125 0.785156 0.375 1.65703 0.375 2.72266V25.9727C0.375 27.0383 1.33125 27.9102 2.5 27.9102H19.5C20.6688 27.9102 21.625 27.0383 21.625 25.9727V8.53516C21.625 8.24453 21.5188 8.05078 21.3063 7.85703ZM13.125 3.11016L19.075 8.53516H13.125V3.11016ZM19.5 25.9727H2.5V2.72266H11V8.53516C11 9.60078 11.9563 10.4727 13.125 10.4727H19.5V25.9727Z" fill="black"/>
</svg>
