<svg width="34" height="32" viewBox="0 0 34 32" fill="none" xmlns="http://www.w3.org/2000/svg">
    <path d="M27.3063 9.85703L19.8688 3.07578C19.6563 2.88203 19.4438 2.78516 19.125 2.78516H8.5C7.33125 2.78516 6.375 3.65703 6.375 4.72266V27.9727C6.375 29.0383 7.33125 29.9102 8.5 29.9102H25.5C26.6688 29.9102 27.625 29.0383 27.625 27.9727V10.5352C27.625 10.2445 27.5188 10.0508 27.3063 9.85703ZM19.125 5.11016L25.075 10.5352H19.125V5.11016ZM25.5 27.9727H8.5V4.72266H17V10.5352C17 11.6008 17.9562 12.4727 19.125 12.4727H25.5V27.9727Z" fill="black"/>
    <path d="M10.625 22.1602H23.375V24.0977H10.625V22.1602Z" fill="black"/>
    <path d="M10.625 16.3477H23.375V18.2852H10.625V16.3477Z" fill="black"/>
</svg>
