<svg width="19" height="19" viewBox="0 0 19 19" fill="none" xmlns="http://www.w3.org/2000/svg">
    <path d="M7.73256 0H0.662791C0.487008 0 0.318424 0.0698294 0.194127 0.194127C0.0698294 0.318424 0 0.487008 0 0.662791V7.73256C0 7.90834 0.0698294 8.07692 0.194127 8.20122C0.318424 8.32552 0.487008 8.39535 0.662791 8.39535H7.73256C7.90834 8.39535 8.07692 8.32552 8.20122 8.20122C8.32552 8.07692 8.39535 7.90834 8.39535 7.73256V0.662791C8.39535 0.487008 8.32552 0.318424 8.20122 0.194127C8.07692 0.0698294 7.90834 0 7.73256 0ZM7.06977 7.06977H1.32558V1.32558H7.06977V7.06977ZM18.3372 0H11.2674C11.0917 0 10.9231 0.0698294 10.7988 0.194127C10.6745 0.318424 10.6047 0.487008 10.6047 0.662791V7.73256C10.6047 7.90834 10.6745 8.07692 10.7988 8.20122C10.9231 8.32552 11.0917 8.39535 11.2674 8.39535H18.3372C18.513 8.39535 18.6816 8.32552 18.8059 8.20122C18.9302 8.07692 19 7.90834 19 7.73256V0.662791C19 0.487008 18.9302 0.318424 18.8059 0.194127C18.6816 0.0698294 18.513 0 18.3372 0ZM17.6744 7.06977H11.9302V1.32558H17.6744V7.06977ZM7.73256 10.6047H0.662791C0.487008 10.6047 0.318424 10.6745 0.194127 10.7988C0.0698294 10.9231 0 11.0917 0 11.2674V18.3372C0 18.513 0.0698294 18.6816 0.194127 18.8059C0.318424 18.9302 0.487008 19 0.662791 19H7.73256C7.90834 19 8.07692 18.9302 8.20122 18.8059C8.32552 18.6816 8.39535 18.513 8.39535 18.3372V11.2674C8.39535 11.0917 8.32552 10.9231 8.20122 10.7988C8.07692 10.6745 7.90834 10.6047 7.73256 10.6047ZM7.06977 17.6744H1.32558V11.9302H7.06977V17.6744ZM18.3372 10.6047H11.2674C11.0917 10.6047 10.9231 10.6745 10.7988 10.7988C10.6745 10.9231 10.6047 11.0917 10.6047 11.2674V18.3372C10.6047 18.513 10.6745 18.6816 10.7988 18.8059C10.9231 18.9302 11.0917 19 11.2674 19H18.3372C18.513 19 18.6816 18.9302 18.8059 18.8059C18.9302 18.6816 19 18.513 19 18.3372V11.2674C19 11.0917 18.9302 10.9231 18.8059 10.7988C18.6816 10.6745 18.513 10.6047 18.3372 10.6047ZM17.6744 17.6744H11.9302V11.9302H17.6744V17.6744Z" fill="#9099AA"/>
</svg>
